HIERARCHY
ROOT SpineBase
{
  OFFSET 0.000000 0.000000 0.000000
  CHANNELS 6 Xposition Yposition Zposition Zrotation Xrotation Yrotation
  JOINT SpineMid
  {
    OFFSET 0.000000 31.025654 0.000000
    CHANNELS 3 Zrotation Xrotation Yrotation
    JOINT SpineShoulder
    {
      OFFSET 0.212256 23.040360 -0.648409
      CHANNELS 3 Zrotation Xrotation Yrotation
      JOINT Neck
      {
        OFFSET 0.164913 7.617101 -0.520658
        CHANNELS 3 Zrotation Xrotation Yrotation
        JOINT Head
        {
          OFFSET 4.628906 13.808930 1.417088
          CHANNELS 3 Zrotation Xrotation Yrotation
          End Site
          {
            OFFSET 0 0 0
          }
        }
      }
      JOINT ShoulderLeft
      {
        OFFSET -7.051589 -2.253564 -14.177839
        CHANNELS 3 Zrotation Xrotation Yrotation
        JOINT ElbowLeft
        {
          OFFSET -4.082873 -22.498224 -6.744382
          CHANNELS 3 Zrotation Xrotation Yrotation
          JOINT WristLeft
          {
            OFFSET 6.674893 -28.456476 -4.087558
            CHANNELS 3 Zrotation Xrotation Yrotation
            JOINT HandLeft
            {
              OFFSET 1.010250 -5.647793 1.623621
              CHANNELS 3 Zrotation Xrotation Yrotation
              JOINT HandTipLeft
              {
                OFFSET 1.507607 -6.664597 0.295247
                CHANNELS 3 Zrotation Xrotation Yrotation
                End Site
                {
                  OFFSET 0 0 0
                }
              }
              JOINT ThumbLeft
              {
                OFFSET 4.511907 1.250057 2.765012
                CHANNELS 3 Zrotation Xrotation Yrotation
                End Site
                {
                  OFFSET 0 0 0
                }
              }
            }
          }
        }
      }
      JOINT ShoulderRight
      {
        OFFSET 9.805524 -5.791178 13.704777
        CHANNELS 3 Zrotation Xrotation Yrotation
        JOINT ElbowRight
        {
          OFFSET -0.117832 -27.005577 7.169800
          CHANNELS 3 Zrotation Xrotation Yrotation
          JOINT WristRight
          {
            OFFSET 1.932768 -23.653712 -4.282006
            CHANNELS 3 Zrotation Xrotation Yrotation
            JOINT HandRight
            {
              OFFSET -0.216174 -6.611122 -1.254042
              CHANNELS 3 Zrotation Xrotation Yrotation
              JOINT HandTipRight
              {
                OFFSET -0.491120 -6.919804 -0.963791
                CHANNELS 3 Zrotation Xrotation Yrotation
                End Site
                {
                  OFFSET 0 0 0
                }
              }
              JOINT ThumbRight
              {
                OFFSET 1.418875 -2.654389 -0.290949
                CHANNELS 3 Zrotation Xrotation Yrotation
                End Site
                {
                  OFFSET 0 0 0
                }
              }
            }
          }
        }
      }
    }
  }
  JOINT HipLeft
  {
    OFFSET -2.394564 1.970756 -8.577973
    CHANNELS 3 Zrotation Xrotation Yrotation
    JOINT KneeLeft
    {
      OFFSET -7.825139 -37.273348 -5.084115
      CHANNELS 3 Zrotation Xrotation Yrotation
      JOINT AnkleLeft
      {
        OFFSET -6.722575 -35.191331 3.674617
        CHANNELS 3 Zrotation Xrotation Yrotation
        JOINT FootLeft
        {
          OFFSET 4.406157 -8.644386 -0.726156
          CHANNELS 3 Zrotation Xrotation Yrotation
          End Site
          {
            OFFSET 0 0 0
          }
        }
      }
    }
  }
  JOINT HipRight
  {
    OFFSET 4.818638 -0.220361 1.975662
    CHANNELS 3 Zrotation Xrotation Yrotation
    JOINT KneeRight
    {
      OFFSET -5.661213 -39.679109 3.599562
      CHANNELS 3 Zrotation Xrotation Yrotation
      JOINT AnkleRight
      {
        OFFSET -10.329441 -34.585607 2.523049
        CHANNELS 3 Zrotation Xrotation Yrotation
        JOINT FootRight
        {
          OFFSET 3.227889 -6.707165 -5.575621
          CHANNELS 3 Zrotation Xrotation Yrotation
          End Site
          {
            OFFSET 0 0 0
          }
        }
      }
    }
  }
}
MOTION
Frames: 10
Frame Time: 0.033333
-117.513970 81.161277 319.353945 0.293101 -0.841358 -63.735728 -0.041162 0.130191 63.754861 -0.391411 0.746955 -0.015347 -7.507532 9.887209 -1.843630 0.000000 0.000000 0.000000 -0.617552 1.257985 -0.036240 -4.350638 -1.780396 0.515454 2.638140 -6.632632 -2.640572 -7.017434 6.469105 2.356423 0.000000 0.000000 0.000000 0.000000 0.000000 0.000000 2.621054 1.909357 0.646897 -2.643861 -1.877639 -0.733914 -0.067446 4.413795 -0.128064 -1.444758 -6.086795 0.324758 0.000000 0.000000 0.000000 0.000000 0.000000 0.000000 -0.884198 0.109452 63.738725 -0.401941 1.274672 -0.281146 8.372175 -4.165113 -1.437280 0.000000 0.000000 0.000000 -2.453996 1.061486 63.507863 0.848297 -0.048740 -0.197921 -0.030697 0.657411 0.800279 0.000000 0.000000 0.000000
-117.510801 81.187040 319.356168 0.389516 -0.782737 -63.627582 -0.024599 0.094286 63.649194 -0.462821 0.718974 -0.016747 -7.234885 9.725954 -1.852695 0.000000 0.000000 0.000000 -0.450567 1.210619 -0.079568 -4.548129 -1.715221 0.568523 2.972466 -6.069062 -2.437149 -9.002524 6.027431 2.273840 0.000000 0.000000 0.000000 0.000000 0.000000 0.000000 2.563197 1.848700 0.633967 -2.584795 -1.818370 -0.716356 0.543450 6.443772 -0.341013 -2.303324 -5.534314 0.277115 0.000000 0.000000 0.000000 0.000000 0.000000 0.000000 -0.874293 -0.001299 63.630233 -0.330690 1.119494 -0.245277 9.731601 -2.040429 -0.729947 0.000000 0.000000 0.000000 -2.459779 0.925675 63.392669 0.838704 -0.056721 -0.196200 -0.745499 -0.766831 0.756734 0.000000 0.000000 0.000000
-117.533262 81.202349 319.365699 0.437252 -0.747215 -63.438550 -0.005578 0.081981 63.461580 -0.507835 0.705751 -0.017668 -6.798374 9.623503 -1.907444 0.000000 0.000000 0.000000 -0.250777 1.113373 -0.124032 -4.832745 -1.578307 0.639517 3.370552 -5.596937 -2.258233 -10.033200 5.690722 2.124782 0.000000 0.000000 0.000000 0.000000 0.000000 0.000000 2.496591 1.758014 0.619528 -2.516598 -1.729244 -0.695824 1.199979 6.750447 -0.513812 -2.437479 -3.353885 0.195968 0.000000 0.000000 0.000000 0.000000 0.000000 0.000000 -0.863864 -0.056995 63.440972 -0.320985 1.037218 -0.228849 10.535376 -0.435620 -0.189838 0.000000 0.000000 0.000000 -2.457954 0.867047 63.199776 0.820835 -0.054531 -0.199265 -2.239929 -1.686252 1.565964 0.000000 0.000000 0.000000
-117.551675 81.212268 319.377721 0.484399 -0.711414 -63.233517 0.003512 0.073087 63.257771 -0.550982 0.681844 -0.018511 -6.297562 9.485997 -1.964003 0.000000 0.000000 0.000000 -0.063071 0.965943 -0.155452 -5.157100 -1.393837 0.708801 3.561649 -4.989467 -2.148699 -11.409059 4.793075 1.856934 0.000000 0.000000 0.000000 0.000000 0.000000 0.000000 2.434007 1.665223 0.606054 -2.452485 -1.637878 -0.676494 1.724654 7.184104 -0.663083 -2.969188 -2.623345 0.191492 0.000000 0.000000 0.000000 0.000000 0.000000 0.000000 -0.853329 -0.112121 63.235690 -0.291869 1.047955 -0.228110 10.536922 -0.087386 -0.047058 0.000000 0.000000 0.000000 -2.471409 0.798280 62.987988 0.851891 -0.088998 -0.187650 -3.215237 -2.588574 1.905262 0.000000 0.000000 0.000000
-117.566123 81.224386 319.383362 0.529334 -0.675888 -63.038367 0.008893 0.068604 63.063733 -0.594259 0.652945 -0.019355 -5.751436 9.347682 -2.027721 0.000000 0.000000 0.000000 0.089550 0.827269 -0.177264 -5.553876 -1.207043 0.786808 3.606230 -4.554486 -2.169262 -12.102546 3.923693 1.615148 0.000000 0.000000 0.000000 0.000000 0.000000 0.000000 2.379325 1.569066 0.594563 -2.396346 -1.542936 -0.659422 1.907080 7.161049 -0.707563 -3.684610 -3.042741 0.266812 0.000000 0.000000 0.000000 0.000000 0.000000 0.000000 -0.842413 -0.165371 63.040273 -0.296205 1.028516 -0.224852 10.116330 -0.365528 -0.143261 0.000000 0.000000 0.000000 -2.483408 0.720035 62.785950 0.891306 -0.072736 -0.189779 -3.811050 -3.249351 2.082450 0.000000 0.000000 0.000000
-117.583680 81.231353 319.386573 0.571633 -0.637732 -62.862141 0.010253 0.073744 62.888514 -0.641686 0.613484 -0.020277 -5.255601 9.176244 -2.071637 0.000000 0.000000 0.000000 -0.000000 0.000000 0.000000 -5.664050 -0.275846 0.744801 3.757121 -4.155328 -2.139661 -12.586077 4.202881 1.718997 0.000000 0.000000 0.000000 0.000000 0.000000 0.000000 2.339097 1.539043 0.585097 -2.848579 -0.850319 -0.513556 2.499446 5.986725 -0.821761 -3.406651 -3.555466 0.324422 0.000000 0.000000 0.000000 0.000000 0.000000 0.000000 -0.828256 -0.217825 62.863747 -0.296114 1.062390 -0.231237 8.781224 -1.122438 -0.342183 0.000000 0.000000 0.000000 -2.473348 0.636642 62.605787 1.075999 0.005113 -0.194999 -2.811176 -3.170367 1.226489 0.000000 0.000000 0.000000
-117.607996 81.221519 319.441274 0.603433 -0.684343 -62.623690 -0.040612 0.141242 62.651532 -0.709930 0.583644 -0.021742 -4.937203 9.004068 -2.081400 0.000000 0.000000 0.000000 -0.000000 0.000000 0.000000 -5.847698 -0.178237 0.799540 4.099167 -5.141745 -2.298595 -14.364761 5.247679 2.201458 0.000000 0.000000 0.000000 0.000000 0.000000 0.000000 2.339709 1.607192 0.583649 -2.813921 -0.923200 -0.521625 2.382367 6.105139 -0.801816 -3.227727 -6.237143 0.461374 0.000000 0.000000 0.000000 0.000000 0.000000 0.000000 -1.749529 -0.093679 62.488729 -0.046428 0.343858 -0.122974 6.411811 -3.089565 -0.983822 0.000000 0.000000 0.000000 -2.548663 0.640174 62.363988 1.135537 0.061047 -0.209657 -4.044485 -4.518452 1.561204 0.000000 0.000000 0.000000
-117.633800 81.224786 319.425579 0.649226 -0.615807 -62.460534 -0.019854 0.146243 62.489466 -0.099713 0.076630 0.029083 -5.401388 9.320904 -2.093748 0.000000 0.000000 0.000000 -0.669526 0.454657 -0.052960 -6.006269 -0.045099 0.861232 3.174286 -4.820340 -2.623401 -13.028820 5.970654 2.702685 0.000000 0.000000 0.000000 0.000000 0.000000 0.000000 1.661623 2.061869 0.509465 -2.687234 -0.795960 -0.525814 1.630456 4.393113 -0.572451 -1.332710 -7.284241 0.504743 0.000000 0.000000 0.000000 0.000000 0.000000 0.000000 -1.695108 -0.210486 62.336316 -0.076133 0.565433 -0.177199 3.302267 -6.823751 -2.501748 0.000000 0.000000 0.000000 -2.451564 0.537725 62.206513 1.156841 0.202868 -0.241826 0.058817 -2.514203 -0.686301 0.000000 0.000000 0.000000
-117.643350 81.245568 319.315002 0.723436 -0.408211 -62.265742 0.065816 0.076882 62.295169 -0.084930 0.082512 0.030608 -5.346710 9.100662 -2.094773 0.000000 0.000000 0.000000 -0.736790 0.348964 -0.055678 -6.142520 0.086878 0.919667 2.111038 -2.444126 -2.562014 -10.563232 4.083078 2.144707 0.000000 0.000000 0.000000 0.000000 0.000000 0.000000 1.605641 2.042358 0.511789 -2.663437 -0.916382 -0.539641 1.433526 3.417640 -0.487292 -0.702245 -7.213428 0.508992 0.000000 0.000000 0.000000 0.000000 0.000000 0.000000 -0.697978 -0.450359 62.265576 -0.465929 1.635995 -0.354796 -0.555916 -11.978667 -5.009924 0.000000 0.000000 0.000000 -2.168649 0.013781 62.018388 1.542360 0.668299 -0.306152 4.926503 -0.839749 -3.675071 0.000000 0.000000 0.000000
-117.642135 81.272779 319.144349 0.809939 -0.095399 -62.129977 0.213792 -0.063333 62.159202 -0.043095 0.090228 0.032822 -5.433199 8.859231 -2.071206 0.000000 0.000000 0.000000 -1.702405 0.593679 0.147875 -5.364490 -0.131027 0.737807 0.433979 0.862659 -2.419673 -6.217195 0.872529 1.489774 0.000000 0.000000 0.000000 0.000000 0.000000 0.000000 1.564059 2.046242 0.518769 -2.658168 -0.994475 -0.553410 1.299938 2.362889 -0.422772 -0.011406 -6.744164 0.473101 0.000000 0.000000 0.000000 0.000000 0.000000 0.000000 -0.462970 -0.671395 62.127939 -0.190473 1.430838 -0.291143 2.834600 -9.440837 -3.743611 0.000000 0.000000 0.000000 -1.689502 -0.096481 61.920554 1.105279 0.712838 -0.336218 8.528316 0.820045 -5.625373 0.000000 0.000000 0.000000
